<!-- Generated by IcoMoon.io -->
<svg version="1.1" xmlns="http://www.w3.org/2000/svg" width="32" height="32" viewBox="0 0 32 32">
<title>cl-logo-b</title>
<path fill="#afb1b8" d="M15.129 8.735h-0.041c-0.063-0.004-0.127-0.005-0.19-0.007h-0.137c-0.12 0-0.242 0.003-0.363 0.009-0.004-0-0.009-0.001-0.014-0.001s-0.010 0-0.014 0.001l0.001-0c-1.166 0.068-2.248 0.359-3.226 0.832l0.051-0.022-0.13 0.063v6.684l0.306-0.104c0.268-0.092 0.554-0.175 0.849-0.252 0.73-0.195 1.571-0.313 2.437-0.324l0.007-0v0.878c-0.109 0.001-0.215 0.004-0.322 0.009h-0.025c-0.686 0.039-1.329 0.142-1.948 0.304l0.068-0.015c-0.851 0.216-1.596 0.515-2.289 0.898l0.049-0.025v-8.573c0.677-0.402 1.459-0.73 2.288-0.942l0.062-0.014c0.664-0.178 1.426-0.282 2.213-0.286h0.131c0.154 0.004 0.305 0.011 0.446 0.021 0.372 0.026 0.741 0.085 1.103 0.176v0.864c-0.308-0.075-0.673-0.133-1.047-0.16l-0.022-0.001-0.022-0.002c-0.075-0.006-0.149-0.013-0.219-0.013zM16.65 9.618c0.192 0.015 0.39 0.022 0.591 0.022 0.829-0.003 1.631-0.112 2.395-0.314l-0.066 0.015c0.85-0.217 1.596-0.516 2.288-0.898l-0.049 0.025v8.42c-0.677 0.402-1.459 0.73-2.288 0.942l-0.062 0.014c-0.664 0.178-1.427 0.282-2.213 0.285h-0.002c-0.016 0-0.035 0-0.054 0-0.577 0-1.138-0.072-1.672-0.208l0.047 0.010v-8.475c0.13 0.030 0.264 0.058 0.399 0.081 0.223 0.038 0.458 0.065 0.687 0.082zM20.935 9.684l-0.305 0.103c-0.281 0.095-0.565 0.179-0.849 0.254-0.761 0.204-1.635 0.322-2.536 0.325h-0.002c-0.199 0-0.383-0.005-0.56-0.017l-0.244-0.016v6.876l0.209 0.018c0.194 0.017 0.394 0.026 0.596 0.026 0.712-0.003 1.4-0.097 2.055-0.272l-0.057 0.013c0.599-0.152 1.119-0.344 1.612-0.583l-0.050 0.022 0.13-0.063v-6.686z"></path>
<path fill="#afb1b8" d="M10.789 20.592c-0.082-0.085-0.197-0.138-0.324-0.138-0.006 0-0.011 0-0.017 0l0.001-0c-0.002-0-0.004-0-0.007-0-0.068 0-0.133 0.014-0.193 0.038l0.003-0.001c-0.116 0.047-0.206 0.137-0.25 0.251l-0.001 0.003c-0.024 0.060-0.036 0.125-0.035 0.19v1.145c-0.003 0.081 0.013 0.161 0.045 0.235 0.027 0.059 0.066 0.111 0.115 0.154 0.046 0.038 0.099 0.066 0.157 0.081 0.056 0.015 0.114 0.024 0.171 0.024 0.064 0.001 0.127-0.013 0.185-0.040 0.172-0.076 0.29-0.246 0.29-0.442v-0.128h-0.3v0.102c0 0.002 0 0.005 0 0.007 0 0.034-0.006 0.067-0.018 0.097l0.001-0.002c-0.010 0.025-0.025 0.047-0.043 0.065l-0 0c-0.034 0.027-0.078 0.043-0.125 0.044h-0c-0.005 0.001-0.011 0.001-0.018 0.001-0.050 0-0.095-0.024-0.123-0.062l-0-0c-0.025-0.040-0.040-0.089-0.040-0.142 0-0.004 0-0.008 0-0.012l-0 0.001v-1.068c-0.002-0.059 0.011-0.118 0.037-0.171 0.028-0.042 0.075-0.070 0.129-0.070 0.006 0 0.012 0 0.018 0.001l-0.001-0c0.002-0 0.004-0 0.006-0 0.052 0 0.099 0.025 0.128 0.064l0 0c0.031 0.040 0.050 0.092 0.050 0.147 0 0.002-0 0.005-0 0.007v-0 0.099h0.296v-0.117c0-0.002 0-0.003 0-0.005 0-0.070-0.013-0.137-0.038-0.199l0.001 0.004c-0.023-0.063-0.057-0.116-0.1-0.161l0 0zM12.567 20.58c-0.091-0.078-0.21-0.125-0.34-0.126h-0c-0.061 0-0.122 0.011-0.179 0.032-0.124 0.044-0.221 0.135-0.273 0.251l-0.001 0.003c-0.030 0.070-0.045 0.145-0.044 0.222v1.098c-0.002 0.077 0.013 0.154 0.044 0.225 0.027 0.059 0.066 0.112 0.116 0.154 0.046 0.042 0.1 0.075 0.158 0.097 0.057 0.021 0.118 0.032 0.179 0.032 0.131-0 0.25-0.049 0.341-0.129l-0.001 0c0.048-0.043 0.086-0.095 0.113-0.154 0.031-0.071 0.046-0.148 0.044-0.225v-1.099c0-0.003 0-0.006 0-0.010 0-0.077-0.016-0.15-0.045-0.215l0.001 0.003c-0.028-0.063-0.066-0.116-0.113-0.16l-0-0zM12.427 22.060c0 0.005 0.001 0.011 0.001 0.017 0 0.056-0.023 0.106-0.060 0.142l-0 0c-0.038 0.032-0.087 0.051-0.141 0.051s-0.103-0.019-0.141-0.052l0 0c-0.037-0.036-0.060-0.086-0.060-0.142 0-0.006 0-0.012 0.001-0.018l-0 0.001v-1.099c-0-0.005-0.001-0.011-0.001-0.017 0-0.056 0.023-0.106 0.060-0.142l0-0c0.038-0.032 0.087-0.051 0.141-0.051s0.103 0.019 0.141 0.052l-0-0c0.037 0.036 0.060 0.086 0.060 0.142 0 0.006-0 0.012-0.001 0.018l0-0.001v1.099zM14.903 22.551v-2.080h-0.288l-0.378 1.101h-0.005l-0.381-1.101h-0.285v2.079h0.297v-1.265h0.005l0.291 0.894h0.148l0.293-0.894h0.005v1.265h0.297zM16.591 20.617c-0.046-0.051-0.104-0.091-0.168-0.114-0.061-0.021-0.131-0.032-0.204-0.032-0.004 0-0.008 0-0.012 0h-0.441v2.080h0.296v-0.812h0.152c0.093 0.004 0.184-0.015 0.267-0.057 0.068-0.038 0.123-0.092 0.162-0.157l0.001-0.002c0.034-0.055 0.057-0.117 0.068-0.181 0.010-0.065 0.016-0.141 0.016-0.218 0-0.007-0-0.013-0-0.020v0.001c0.003-0.1-0.007-0.2-0.029-0.297-0.021-0.075-0.059-0.139-0.109-0.191l0 0zM16.438 21.251c-0.001 0.040-0.011 0.077-0.028 0.11l0.001-0.002c-0.017 0.032-0.043 0.057-0.075 0.072l-0.001 0c-0.037 0.017-0.079 0.027-0.124 0.027-0.005 0-0.011-0-0.016-0l0.001 0h-0.135v-0.707h0.153c0.004-0 0.009-0 0.014-0 0.043 0 0.084 0.010 0.121 0.027l-0.002-0.001c0.031 0.018 0.055 0.044 0.069 0.076l0 0.001c0.016 0.037 0.025 0.076 0.026 0.116v0.138c0 0.048 0.003 0.098 0 0.143h-0.003zM17.995 20.471h-0.243l-0.458 2.080h0.296l0.087-0.447h0.404l0.087 0.447h0.296l-0.469-2.080zM17.721 21.821l0.146-0.754h0.005l0.145 0.754h-0.296zM19.909 21.724h-0.005l-0.447-1.253h-0.285v2.080h0.296v-1.251h0.006l0.453 1.25h0.279v-2.079h-0.296v1.253zM21.72 20.471l-0.238 0.827h-0.006l-0.238-0.827h-0.313l0.407 1.201v0.879h0.296v-0.879l0.407-1.201h-0.314zM9.962 23.138h0.143v0.401h0.097v-0.401h0.142v-0.082h-0.382v0.082zM11.163 23.056l-0.187 0.483h0.103l0.040-0.11h0.193l0.041 0.11h0.106l-0.192-0.483h-0.103zM11.148 23.348l0.066-0.179 0.066 0.179h-0.131zM12.35 23.361h0.112v0.062c-0.031 0.025-0.071 0.040-0.115 0.041h-0c-0.002 0-0.005 0-0.007 0-0.039 0-0.073-0.018-0.096-0.046l-0-0c-0.022-0.032-0.036-0.072-0.036-0.115 0-0.004 0-0.008 0-0.011l-0 0.001c0-0.107 0.046-0.161 0.139-0.161 0.003-0 0.007-0.001 0.010-0.001 0.048 0 0.088 0.033 0.099 0.077l0 0.001 0.095-0.019c-0.021-0.094-0.088-0.142-0.205-0.142-0.002-0-0.004-0-0.006-0-0.063 0-0.12 0.024-0.163 0.062l0-0c-0.043 0.043-0.070 0.102-0.070 0.168 0 0.006 0 0.013 0.001 0.019l-0-0.001c-0 0.003-0 0.007-0 0.011 0 0.065 0.024 0.124 0.062 0.17l-0-0c0.043 0.044 0.102 0.071 0.168 0.071 0.005 0 0.010-0 0.016-0l-0.001 0c0.002 0 0.005 0 0.008 0 0.076 0 0.145-0.029 0.197-0.077l-0 0v-0.19h-0.209v0.081zM13.562 23.056h-0.098v0.483h0.338v-0.082h-0.24v-0.401zM14.587 23.056h-0.098v0.483h0.098v-0.483zM15.588 23.378l-0.198-0.322h-0.095v0.483h0.091v-0.315l0.194 0.315h0.097v-0.483h-0.090v0.323zM16.494 23.326h0.241v-0.082h-0.241v-0.106h0.259v-0.082h-0.357v0.483h0.366v-0.082h-0.269v-0.131zM18.69 23.246h-0.19v-0.19h-0.097v0.483h0.097v-0.211h0.19v0.211h0.097v-0.483h-0.097v0.191zM19.602 23.326h0.241v-0.082h-0.241v-0.106h0.26v-0.082h-0.356v0.483h0.366v-0.082h-0.269v-0.131zM20.837 23.326c0.084-0.013 0.127-0.058 0.127-0.134 0-0.004 0.001-0.009 0.001-0.014 0-0.039-0.019-0.073-0.048-0.094l-0-0c-0.036-0.018-0.078-0.029-0.122-0.029-0.007 0-0.013 0-0.020 0.001l0.001-0h-0.205v0.483h0.097v-0.202h0.019c0.002-0 0.005-0 0.008-0 0.019 0 0.037 0.004 0.053 0.011l-0.001-0c0.014 0.009 0.026 0.021 0.034 0.035l0.105 0.153h0.116l-0.059-0.094c-0.027-0.047-0.063-0.086-0.106-0.115l-0.001-0.001zM20.739 23.259h-0.072v-0.121h0.076c0.006-0.001 0.013-0.001 0.020-0.001 0.028 0 0.055 0.005 0.080 0.013l-0.002-0c0.013 0.012 0.021 0.029 0.021 0.047 0 0.021-0.010 0.039-0.025 0.051l-0 0c-0.024 0.008-0.052 0.012-0.081 0.012-0.006 0-0.013-0-0.019-0.001l0.001 0zM21.769 23.326h0.24v-0.082h-0.24v-0.106h0.26v-0.082h-0.357v0.483h0.366v-0.082h-0.269v-0.131z"></path>
</svg>
