<!-- Generated by IcoMoon.io -->
<svg version="1.1" xmlns="http://www.w3.org/2000/svg" width="32" height="32" viewBox="0 0 32 32">
<title>cl-logo-d</title>
<path fill="#2196f3" d="M7.289 13.314h-0.001c-0.724 0-1.311 0.521-1.311 1.165v0.001c0 0.643 0.587 1.165 1.311 1.165h0.001c0.724 0 1.311-0.522 1.311-1.165v-0.001c0-0.644-0.587-1.165-1.311-1.165zM16.965 12.942c-0.002-0.894-0.402-1.75-1.113-2.382s-1.675-0.988-2.68-0.99c-1.006 0.002-1.97 0.357-2.681 0.989s-1.112 1.489-1.114 2.383v4.928s7.588-0.751 7.589-4.927v-0.001zM3.321 19.487c0.002 0.622 0.281 1.218 0.775 1.657s1.165 0.687 1.864 0.689c0.699-0.002 1.37-0.25 1.864-0.689s0.773-1.035 0.775-1.657v-3.429s-5.279 0.523-5.279 3.428zM5.96 20.101c-0.137 0-0.27-0.036-0.384-0.104-0.111-0.065-0.198-0.159-0.253-0.272l-0.002-0.004c-0.033-0.069-0.052-0.149-0.052-0.235 0-0.043 0.005-0.084 0.014-0.124l-0.001 0.004c0.027-0.119 0.092-0.229 0.189-0.315s0.22-0.145 0.354-0.168c0.041-0.008 0.087-0.012 0.135-0.012 0.095 0 0.186 0.017 0.27 0.048l-0.005-0.002c0.127 0.047 0.234 0.125 0.31 0.226s0.117 0.22 0.117 0.341c0 0.081-0.017 0.161-0.052 0.236-0.037 0.078-0.088 0.145-0.149 0.199l-0.001 0.001c-0.064 0.057-0.14 0.103-0.225 0.134-0.079 0.030-0.17 0.047-0.265 0.047-0 0-0 0-0.001 0h0v-0.002zM11.296 19.763h-0.51v0.526h-0.265v-1.288h0.839v0.215h-0.573v0.333h0.51v0.214zM12.571 19.674c0 0.127-0.022 0.238-0.067 0.333s-0.109 0.169-0.193 0.221c-0.079 0.049-0.174 0.078-0.277 0.078-0.003 0-0.007-0-0.010-0h0.001c-0.107 0-0.202-0.026-0.286-0.077-0.085-0.053-0.151-0.128-0.193-0.216l-0.001-0.003c-0.044-0.093-0.070-0.202-0.070-0.318 0-0.004 0-0.008 0-0.012v0.001-0.063c0-0.127 0.023-0.238 0.068-0.334s0.111-0.171 0.194-0.222c0.084-0.052 0.179-0.078 0.287-0.078s0.202 0.026 0.286 0.078c0.084 0.051 0.148 0.125 0.194 0.222s0.069 0.207 0.069 0.333v0.057zM12.303 19.616c0-0.135-0.024-0.238-0.072-0.308-0.043-0.064-0.115-0.105-0.197-0.105-0.004 0-0.007 0-0.011 0l0.001-0c-0.003-0-0.007-0-0.010-0-0.081 0-0.153 0.041-0.196 0.104l-0.001 0.001c-0.048 0.069-0.073 0.17-0.073 0.304v0.063c0 0.131 0.024 0.233 0.072 0.306s0.118 0.109 0.209 0.109c0.003 0 0.007 0 0.010 0 0.081 0 0.152-0.041 0.194-0.104l0.001-0.001c0.048-0.070 0.072-0.172 0.072-0.306v-0.063zM13.432 19.951c0-0.002 0-0.005 0-0.007 0-0.044-0.021-0.082-0.053-0.107l-0-0c-0.035-0.027-0.099-0.056-0.191-0.085-0.085-0.026-0.157-0.056-0.226-0.092l0.008 0.004c-0.146-0.079-0.219-0.186-0.219-0.319 0-0.069 0.019-0.132 0.058-0.186s0.096-0.098 0.169-0.128c0.074-0.030 0.156-0.046 0.248-0.046s0.174 0.017 0.246 0.050c0.072 0.033 0.128 0.080 0.167 0.141s0.060 0.13 0.060 0.207h-0.266c0-0.059-0.018-0.105-0.056-0.137s-0.089-0.049-0.156-0.049c-0.065 0-0.115 0.014-0.151 0.042-0.033 0.024-0.054 0.062-0.054 0.105 0 0.001 0 0.002 0 0.003v-0c0 0.042 0.021 0.077 0.063 0.105s0.105 0.055 0.187 0.079c0.151 0.045 0.261 0.102 0.33 0.169s0.104 0.151 0.104 0.251c0 0.111-0.042 0.199-0.127 0.263s-0.197 0.095-0.34 0.095c-0.099 0-0.189-0.018-0.271-0.054-0.076-0.032-0.14-0.084-0.186-0.148l-0.001-0.001c-0.040-0.059-0.063-0.133-0.063-0.211 0-0.003 0-0.006 0-0.009v0h0.266c0 0.142 0.085 0.213 0.255 0.213 0.063 0 0.112-0.013 0.148-0.038 0.032-0.023 0.053-0.061 0.053-0.103 0-0.002-0-0.004-0-0.005v0zM14.848 19.216h-0.394v1.073h-0.266v-1.073h-0.389v-0.215h1.049v0.215zM15.774 19.731h-0.509v0.345h0.598v0.213h-0.863v-1.288h0.862v0.215h-0.596v0.307h0.51v0.208zM16.495 19.817h-0.211v0.472h-0.265v-1.288h0.479c0.152 0 0.27 0.034 0.352 0.102s0.124 0.164 0.124 0.287c0 0.088-0.019 0.162-0.057 0.22-0.043 0.062-0.101 0.11-0.17 0.139l-0.003 0.001 0.278 0.526v0.012h-0.285l-0.241-0.471zM16.284 19.602h0.214c0.066 0 0.118-0.017 0.155-0.050 0.034-0.033 0.055-0.080 0.055-0.131 0-0.003-0-0.007-0-0.010l0 0c0-0.061-0.017-0.109-0.052-0.143s-0.087-0.052-0.159-0.052h-0.213v0.386zM17.892 19.835v0.454h-0.265v-1.288h0.502c0.097 0 0.182 0.018 0.255 0.053s0.13 0.086 0.17 0.151c0.039 0.065 0.059 0.139 0.059 0.222 0 0.126-0.043 0.226-0.13 0.299s-0.206 0.109-0.358 0.109h-0.232zM17.892 19.62h0.237c0.070 0 0.124-0.017 0.16-0.049 0.037-0.033 0.056-0.080 0.056-0.142 0-0.003 0-0.006 0-0.010 0-0.055-0.021-0.106-0.056-0.144l0 0c-0.037-0.039-0.088-0.059-0.154-0.060h-0.243v0.405zM19.57 19.731h-0.509v0.345h0.598v0.213h-0.863v-1.288h0.862v0.215h-0.596v0.307h0.51v0.208zM20.802 19.216h-0.395v1.073h-0.265v-1.073h-0.389v-0.215h1.049v0.215zM21.729 19.731h-0.509v0.345h0.598v0.213h-0.863v-1.288h0.862v0.215h-0.596v0.307h0.509v0.208zM22.45 19.817h-0.211v0.472h-0.266v-1.288h0.479c0.152 0 0.269 0.034 0.352 0.102s0.124 0.164 0.124 0.287c0 0.088-0.019 0.162-0.057 0.22-0.043 0.062-0.101 0.11-0.17 0.139l-0.003 0.001 0.279 0.526v0.012h-0.285l-0.241-0.471zM22.238 19.602h0.214c0.066 0 0.118-0.017 0.155-0.050 0.034-0.033 0.055-0.080 0.055-0.131 0-0.003-0-0.007-0-0.010l0 0c0-0.061-0.017-0.109-0.052-0.143s-0.087-0.052-0.158-0.052h-0.213v0.386zM23.797 19.951c0-0.002 0-0.005 0-0.008 0-0.044-0.021-0.083-0.053-0.107l-0-0c-0.035-0.027-0.099-0.056-0.191-0.085-0.085-0.026-0.157-0.056-0.226-0.092l0.008 0.004c-0.146-0.079-0.219-0.186-0.219-0.319 0-0.069 0.020-0.132 0.058-0.186s0.096-0.098 0.169-0.128c0.074-0.030 0.156-0.046 0.248-0.046s0.174 0.017 0.246 0.050c0.072 0.033 0.128 0.080 0.167 0.141s0.060 0.13 0.060 0.207h-0.266c0-0.059-0.018-0.105-0.056-0.137s-0.089-0.049-0.156-0.049c-0.065 0-0.115 0.014-0.151 0.042-0.033 0.024-0.054 0.062-0.054 0.105 0 0.001 0 0.002 0 0.003v-0c0 0.042 0.021 0.077 0.063 0.105s0.105 0.055 0.187 0.079c0.151 0.045 0.261 0.102 0.33 0.169s0.104 0.151 0.104 0.251c0 0.111-0.042 0.199-0.127 0.263s-0.198 0.095-0.34 0.095c-0.099 0-0.189-0.018-0.271-0.054-0.076-0.032-0.14-0.084-0.186-0.148l-0.001-0.001c-0.040-0.059-0.063-0.133-0.063-0.211 0-0.003 0-0.006 0-0.009v0h0.266c0 0.142 0.085 0.213 0.255 0.213 0.063 0 0.112-0.013 0.148-0.038 0.032-0.023 0.053-0.061 0.053-0.103 0-0.002-0-0.003-0-0.005v0z"></path>
</svg>
