<!-- Generated by IcoMoon.io -->
<svg version="1.1" xmlns="http://www.w3.org/2000/svg" width="32" height="32" viewBox="0 0 32 32">
<title>cl-logo-c</title>
<path fill="#afb1b8" d="M10.991 21.766c0.005 0 0.010 0.001 0.014 0.003s0.008 0.004 0.012 0.007l-0-0 0.066 0.063c-0.051 0.051-0.114 0.092-0.185 0.12-0.073 0.027-0.157 0.043-0.246 0.043-0.006 0-0.012-0-0.018-0l0.001 0c-0.085 0.002-0.168-0.012-0.247-0.040-0.072-0.026-0.134-0.065-0.187-0.113l0 0c-0.051-0.048-0.091-0.106-0.119-0.171l-0.001-0.003c-0.027-0.064-0.042-0.139-0.042-0.218 0-0.002 0-0.004 0-0.007v0c-0-0.003-0-0.007-0-0.012 0-0.154 0.067-0.292 0.173-0.387l0-0c0.056-0.049 0.123-0.088 0.197-0.114 0.081-0.027 0.168-0.041 0.255-0.040 0.005-0 0.010-0 0.016-0 0.079 0 0.155 0.013 0.225 0.038l-0.005-0.001c0.065 0.025 0.125 0.059 0.177 0.101l-0.055 0.067c-0.004 0.005-0.008 0.009-0.014 0.012l-0 0c-0.005 0.003-0.012 0.005-0.019 0.005-0.001 0-0.002-0-0.003-0h0c-0.009-0-0.017-0.003-0.024-0.007l0 0-0.029-0.018-0.041-0.023c-0.038-0.018-0.081-0.032-0.127-0.040l-0.003-0c-0.027-0.005-0.059-0.007-0.091-0.007-0.003 0-0.005 0-0.008 0h0c-0.002-0-0.004-0-0.006-0-0.063 0-0.124 0.011-0.18 0.031l0.004-0.001c-0.055 0.020-0.103 0.048-0.144 0.085l0-0c-0.041 0.039-0.072 0.085-0.093 0.134s-0.034 0.109-0.034 0.171c0 0.002 0 0.004 0 0.006v-0c-0 0.002-0 0.005-0 0.007 0 0.062 0.012 0.122 0.035 0.176l-0.001-0.003c0.020 0.049 0.051 0.095 0.091 0.134 0.038 0.036 0.085 0.065 0.137 0.083 0.054 0.019 0.111 0.029 0.169 0.029 0.034 0 0.067-0.002 0.101-0.006 0.084-0.009 0.158-0.042 0.218-0.093l-0.001 0c0.008-0.007 0.019-0.011 0.031-0.011h0zM12.892 21.45c0 0.002 0 0.004 0 0.007 0 0.078-0.016 0.152-0.046 0.219l0.001-0.003c-0.029 0.068-0.071 0.126-0.123 0.172l-0 0c-0.055 0.049-0.119 0.087-0.191 0.112l-0.004 0.001c-0.075 0.025-0.161 0.040-0.25 0.040s-0.176-0.015-0.256-0.042l0.006 0.002c-0.075-0.027-0.139-0.065-0.194-0.114l0.001 0c-0.053-0.048-0.095-0.106-0.124-0.171l-0.001-0.003c-0.028-0.066-0.044-0.142-0.044-0.223s0.016-0.157 0.046-0.226l-0.001 0.004c0.028-0.065 0.071-0.125 0.125-0.175 0.055-0.048 0.121-0.085 0.193-0.11 0.075-0.026 0.161-0.041 0.25-0.041s0.176 0.015 0.256 0.042l-0.006-0.002c0.073 0.026 0.139 0.064 0.194 0.113s0.097 0.109 0.124 0.172c0.030 0.072 0.046 0.148 0.044 0.224zM12.719 21.45c0-0.003 0-0.006 0-0.009 0-0.061-0.012-0.119-0.033-0.173l0.001 0.003c-0.040-0.103-0.122-0.182-0.224-0.217l-0.003-0.001c-0.054-0.019-0.117-0.029-0.182-0.029s-0.128 0.011-0.186 0.030l0.004-0.001c-0.054 0.019-0.101 0.048-0.139 0.085l0-0c-0.038 0.036-0.069 0.081-0.088 0.131l-0.001 0.002c-0.020 0.053-0.031 0.115-0.031 0.179s0.011 0.126 0.033 0.182l-0.001-0.004c0.040 0.103 0.123 0.182 0.226 0.217l0.003 0.001c0.117 0.038 0.246 0.038 0.364 0 0.053-0.018 0.1-0.047 0.139-0.084 0.040-0.039 0.069-0.085 0.088-0.134 0.022-0.057 0.033-0.118 0.031-0.179zM14.189 21.638l0.018 0.040c0.006-0.014 0.012-0.027 0.019-0.040 0.007-0.016 0.014-0.028 0.022-0.041l-0.001 0.002 0.421-0.664c0.008-0.011 0.016-0.019 0.024-0.021s0.019-0.004 0.029-0.004c0.002 0 0.004 0 0.006 0h0.124v1.081h-0.147v-0.828c-0-0.006-0.001-0.012-0.001-0.019s0-0.013 0.001-0.020l-0 0.001-0.424 0.674c-0.006 0.010-0.014 0.019-0.024 0.024l-0 0c-0.010 0.006-0.023 0.009-0.036 0.009-0 0-0 0-0.001 0h-0.024c-0 0-0.001 0-0.001 0-0.013 0-0.025-0.003-0.036-0.009l0 0c-0.010-0.006-0.019-0.014-0.024-0.024l-0-0-0.436-0.678v0.867h-0.142v-1.078h0.124c0.002-0 0.004-0 0.006-0 0.010 0 0.020 0.001 0.030 0.004l-0.001-0c0.010 0.005 0.018 0.012 0.023 0.021l0.43 0.665c0.008 0.011 0.015 0.024 0.021 0.037l0.001 0.001zM15.772 21.584v0.405h-0.164v-1.079h0.367c0.069-0.001 0.138 0.007 0.205 0.024 0.053 0.013 0.103 0.036 0.145 0.067 0.035 0.028 0.063 0.063 0.081 0.104l0.001 0.002c0.020 0.044 0.029 0.091 0.028 0.138 0 0.002 0 0.004 0 0.007 0 0.097-0.047 0.184-0.119 0.239l-0.001 0.001c-0.042 0.032-0.092 0.057-0.146 0.071-0.056 0.016-0.119 0.025-0.185 0.025-0.005 0-0.009-0-0.014-0l-0.199-0.003zM15.772 21.468h0.199c0.043 0.001 0.086-0.005 0.128-0.016 0.035-0.010 0.066-0.026 0.093-0.047l-0.001 0c0.046-0.038 0.076-0.096 0.076-0.16 0-0.001 0-0.002-0-0.003v0c0-0.003 0-0.008 0-0.012 0-0.028-0.006-0.054-0.017-0.077l0 0.001c-0.014-0.029-0.033-0.054-0.057-0.073l-0-0c-0.055-0.037-0.123-0.059-0.195-0.059-0.009 0-0.018 0-0.027 0.001l0.001-0h-0.199v0.445zM17.984 21.99h-0.13c-0.001 0-0.002 0-0.002 0-0.013 0-0.024-0.004-0.034-0.010l0 0c-0.009-0.006-0.017-0.015-0.022-0.025l-0-0-0.112-0.261h-0.562l-0.116 0.261c-0.010 0.021-0.031 0.035-0.056 0.035-0.001 0-0.001 0-0.002-0h-0.13l0.494-1.081h0.171l0.501 1.081zM17.169 21.589h0.464l-0.196-0.44c-0.015-0.033-0.027-0.067-0.037-0.101l-0.019 0.056c-0.006 0.017-0.012 0.033-0.018 0.046l-0.194 0.439zM18.696 20.915c0.010 0.005 0.018 0.011 0.024 0.019l0.72 0.815v-0.839h0.147v1.081h-0.082c-0.001 0-0.001 0-0.002 0-0.012 0-0.023-0.002-0.032-0.007l0 0c-0.010-0.005-0.019-0.012-0.026-0.020l-0-0-0.719-0.814c0 0.006 0.001 0.012 0.001 0.019s-0 0.013-0.001 0.019l0-0.001v0.803h-0.147v-1.081h0.087c0.010 0 0.020 0.002 0.030 0.005zM20.801 21.56v0.429h-0.165v-0.429l-0.455-0.651h0.147c0.001-0 0.002-0 0.004-0 0.012 0 0.023 0.003 0.032 0.009l-0-0c0.009 0.007 0.017 0.015 0.022 0.024l0.285 0.42c0.011 0.018 0.021 0.034 0.030 0.050s0.015 0.031 0.021 0.046l0.021-0.047c0.008-0.017 0.017-0.033 0.028-0.049l0.281-0.423c0.006-0.009 0.013-0.016 0.021-0.023l0-0c0.009-0.007 0.020-0.011 0.032-0.011 0.001 0 0.002 0 0.003 0h0.149l-0.456 0.654zM14.107 19.096c0.072 0.008 0.144 0.014 0.217 0.020 1.111-0.432 2.050-1.138 2.701-2.031s0.984-1.933 0.959-2.99l-1.224-1.063c0.249 1.125 0.132 2.288-0.336 3.359s-1.271 2.008-2.318 2.705z"></path>
<path fill="#afb1b8" d="M13.671 19.047l0.033 0.006c1.118-0.695 1.97-1.666 2.447-2.786s0.555-2.339 0.226-3.499l-1.743-1.515c0.705 1.245 0.989 2.639 0.818 4.018s-0.788 2.689-1.781 3.775zM19.583 15.344c-0.296 1.161-1.016 2.209-2.051 2.987-0.283 0.215-0.602 0.417-0.938 0.591l-0.037 0.017c0.843-0.215 1.618-0.596 2.266-1.113s1.149-1.156 1.467-1.868l-0.707-0.614z"></path>
<path fill="#afb1b8" d="M19.305 15.173l-1.006-0.875c-0.019 0.997-0.346 1.972-0.945 2.822s-1.45 1.546-2.463 2.015h0.005c0.226 0 0.451-0.012 0.676-0.035 0.947-0.336 1.784-0.87 2.435-1.556s1.098-1.5 1.299-2.371zM13.816 10.614l-1.201-1.045c-1.073 0.36-1.997 0.994-2.649 1.818s-1.003 1.8-1.006 2.8c0.004 1.105 0.432 2.177 1.217 3.047s1.88 1.487 3.114 1.755c1.101-1.166 1.746-2.607 1.841-4.113s-0.366-2.999-1.315-4.263zM22.080 15.012c-0.004-1.311-0.606-2.567-1.672-3.494s-2.513-1.449-4.022-1.453c-0.004 0-0.008 0-0.012 0-0.725 0-1.422 0.121-2.072 0.343l0.045-0.013 7.352 6.389c0.24-0.52 0.38-1.129 0.38-1.771v-0z"></path>
</svg>
