<!-- Generated by IcoMoon.io -->
<svg version="1.1" xmlns="http://www.w3.org/2000/svg" width="32" height="32" viewBox="0 0 32 32">
<title>cl-logo-f</title>
<path fill="#afb1b8" d="M16.128 15.217c-0.115-0.148-0.184-0.337-0.184-0.542 0-0.020 0.001-0.040 0.002-0.060l-0 0.003v-0.871c0-0.267 0.060-0.469 0.182-0.608s0.329-0.208 0.623-0.207c0.277 0 0.474 0.059 0.59 0.177 0.127 0.151 0.189 0.335 0.174 0.52v0.205h-0.495v-0.207c0.002-0.068-0.003-0.136-0.015-0.203-0.009-0.049-0.034-0.091-0.071-0.12l-0-0c-0.044-0.030-0.099-0.048-0.158-0.048-0.007 0-0.015 0-0.022 0.001l0.001-0c-0.006-0-0.014-0.001-0.021-0.001-0.062 0-0.12 0.019-0.168 0.051l0.001-0.001c-0.041 0.033-0.070 0.079-0.082 0.131l-0 0.002c-0.013 0.060-0.020 0.128-0.020 0.198 0 0.006 0 0.012 0 0.018v-0.001 1.056c-0.008 0.102 0.014 0.204 0.063 0.296 0.026 0.032 0.059 0.056 0.097 0.071l0.002 0.001c0.029 0.012 0.063 0.018 0.098 0.018 0.011 0 0.021-0.001 0.031-0.002l-0.001 0c0.006 0.001 0.014 0.001 0.021 0.001 0.058 0 0.111-0.018 0.155-0.049l-0.001 0.001c0.038-0.032 0.065-0.076 0.074-0.127l0-0.001c0.011-0.070 0.017-0.141 0.015-0.212v-0.214h0.495v0.196c0.001 0.015 0.002 0.034 0.002 0.052 0 0.188-0.065 0.361-0.174 0.497l0.001-0.002c-0.114 0.129-0.308 0.194-0.593 0.194s-0.501-0.069-0.622-0.213zM18.191 15.227c-0.125-0.136-0.188-0.333-0.188-0.594v-0.916c0-0.259 0.063-0.454 0.188-0.587s0.334-0.199 0.628-0.198c0.291 0 0.499 0.066 0.625 0.198s0.189 0.328 0.189 0.587v0.915c0 0.259-0.063 0.457-0.191 0.594s-0.334 0.204-0.622 0.204-0.501-0.069-0.628-0.203zM19.049 15.007c0.045-0.085 0.065-0.178 0.059-0.271v-1.121c0.001-0.009 0.001-0.020 0.001-0.030 0-0.086-0.022-0.167-0.060-0.238l0.001 0.003c-0.026-0.032-0.060-0.057-0.1-0.072l-0.002-0.001c-0.029-0.011-0.062-0.018-0.097-0.018-0.012 0-0.024 0.001-0.035 0.002l0.001-0c-0.010-0.001-0.022-0.002-0.034-0.002-0.035 0-0.069 0.007-0.099 0.018l0.002-0.001c-0.041 0.015-0.075 0.040-0.101 0.072l-0 0c-0.045 0.083-0.066 0.175-0.059 0.266v1.126c-0.006 0.093 0.014 0.186 0.059 0.271 0.029 0.028 0.065 0.051 0.104 0.067 0.038 0.015 0.081 0.024 0.127 0.024s0.090-0.009 0.13-0.025l-0.002 0.001c0.040-0.016 0.075-0.039 0.104-0.067v-0.005zM20.228 12.958h0.533l0.401 1.689 0.411-1.689h0.519l0.053 2.438h-0.384l-0.041-1.694-0.396 1.694h-0.308l-0.41-1.701-0.038 1.701h-0.388l0.048-2.438zM22.741 12.958h0.831c0.479 0 0.718 0.231 0.718 0.692 0 0.442-0.252 0.663-0.756 0.662h-0.283v1.083h-0.513l0.003-2.438zM23.451 14c0.051 0.006 0.102 0.002 0.151-0.012s0.094-0.035 0.131-0.065c0.059-0.082 0.085-0.179 0.074-0.275 0-0.008 0-0.017 0-0.027 0-0.069-0.009-0.136-0.026-0.2l0.001 0.005c-0.008-0.026-0.021-0.048-0.038-0.067l0 0c-0.018-0.020-0.039-0.036-0.063-0.048l-0.001-0.001c-0.060-0.025-0.129-0.040-0.202-0.040-0.009 0-0.019 0-0.028 0.001l0.001-0h-0.199v0.729h0.199zM25.029 12.958h0.551l0.565 2.438h-0.478l-0.112-0.562h-0.491l-0.115 0.562h-0.485l0.565-2.438zM25.5 14.552l-0.192-1.023-0.192 1.023h0.383zM26.601 12.958h0.359l0.687 1.391v-1.391h0.426v2.438h-0.341l-0.691-1.452v1.452h-0.44l0.001-2.438zM29.070 14.466l-0.571-1.505h0.481l0.349 0.967 0.327-0.967h0.471l-0.564 1.505v0.93h-0.492v-0.93zM16.92 16.462v0.127h-0.418v0.991h-0.175v-0.991h-0.421v-0.127h1.014zM18.232 17.581h-0.136c-0.001 0-0.002 0-0.004 0-0.013 0-0.025-0.004-0.035-0.011l0 0c-0.010-0.006-0.017-0.015-0.022-0.025l-0-0-0.121-0.266h-0.581l-0.121 0.266c-0.004 0.012-0.010 0.022-0.019 0.030l-0 0c-0.010 0.007-0.022 0.011-0.035 0.011-0.001 0-0.002-0-0.003-0h-0.135l0.513-1.118h0.178l0.519 1.114zM17.383 17.166h0.484l-0.205-0.455c-0.013-0.029-0.026-0.064-0.036-0.1l-0.001-0.006c-0.007 0.021-0.013 0.042-0.019 0.059l-0.019 0.047-0.203 0.454zM19.116 17.471c0.032 0.002 0.064 0.002 0.097 0 0.027-0.002 0.055-0.007 0.082-0.013 0.025-0.005 0.050-0.012 0.074-0.020 0.023-0.008 0.045-0.018 0.069-0.027v-0.251h-0.205c-0.001 0-0.001 0-0.002 0-0.010 0-0.019-0.003-0.026-0.009l0 0c-0.003-0.002-0.006-0.005-0.008-0.009l-0-0c-0.002-0.003-0.002-0.006-0.002-0.010 0-0 0-0.001 0-0.001v0-0.086h0.398v0.429c-0.062 0.039-0.134 0.070-0.211 0.090l-0.005 0.001c-0.042 0.011-0.085 0.018-0.128 0.023-0.050 0.005-0.1 0.007-0.15 0.007-0.002 0-0.004 0-0.007 0-0.090 0-0.177-0.015-0.257-0.043l0.006 0.002c-0.079-0.027-0.147-0.067-0.206-0.118l0.001 0.001c-0.055-0.049-0.099-0.108-0.131-0.174l-0.001-0.003c-0.030-0.066-0.047-0.143-0.047-0.225 0-0.003 0-0.005 0-0.008v0c-0-0.002-0-0.004-0-0.007 0-0.082 0.017-0.16 0.048-0.231l-0.001 0.004c0.029-0.066 0.075-0.127 0.132-0.177s0.128-0.090 0.205-0.116c0.088-0.029 0.181-0.043 0.275-0.042 0.048 0 0.095 0.003 0.142 0.010 0.042 0.006 0.083 0.015 0.122 0.028 0.036 0.011 0.070 0.027 0.103 0.044s0.061 0.037 0.089 0.058l-0.049 0.069c-0.004 0.006-0.010 0.012-0.016 0.015l-0 0c-0.007 0.004-0.015 0.006-0.023 0.006h-0c-0.012-0-0.023-0.003-0.032-0.009l0 0c-0.021-0.010-0.037-0.019-0.053-0.028l0.003 0.002c-0.019-0.011-0.042-0.021-0.065-0.029l-0.003-0.001c-0.026-0.009-0.058-0.018-0.090-0.024l-0.004-0.001c-0.037-0.006-0.080-0.010-0.123-0.010-0.002 0-0.005 0-0.007 0h0c-0.002-0-0.004-0-0.006-0-0.069 0-0.135 0.011-0.196 0.032l0.004-0.001c-0.057 0.020-0.109 0.050-0.151 0.088-0.041 0.038-0.073 0.084-0.094 0.136l-0.001 0.003c-0.022 0.055-0.034 0.119-0.034 0.186s0.013 0.131 0.036 0.19l-0.001-0.004c0.022 0.053 0.057 0.101 0.103 0.141 0.042 0.038 0.093 0.069 0.149 0.088 0.065 0.019 0.134 0.027 0.203 0.022zM20.75 17.453h0.56v0.127h-0.731v-1.118h0.175l-0.004 0.991zM21.893 17.581h-0.175v-1.118h0.175v1.118zM22.545 16.468c0.011 0.005 0.019 0.012 0.027 0.020l0 0 0.75 0.843c-0-0.006-0.001-0.013-0.001-0.020s0-0.014 0.001-0.021l-0 0.001v-0.833h0.153v1.123h-0.088c-0.002 0-0.004 0-0.006 0-0.012 0-0.023-0.002-0.033-0.007l0.001 0c-0.011-0.006-0.020-0.013-0.027-0.021l-0-0-0.749-0.842v0.869h-0.147v-1.118h0.091c0.010 0 0.020 0.002 0.029 0.005zM24.766 16.462v0.123h-0.621v0.369h0.504v0.119h-0.504v0.382h0.621v0.123h-0.802v-1.115h0.802zM6.389 9.557l7.787 1.909v6.689l-7.787-1.908v-6.69zM5.889 8.986v7.586l8.785 2.154v-7.585l-8.785-2.155z"></path>
<path fill="#afb1b8" d="M10.597 22.247l-8.786-2.156v-7.584l8.786 2.155v7.585z"></path>
<path fill="#afb1b8" d="M6.035 9.47l7.685 1.885-3.269 2.823-7.686-1.886 3.269-2.822zM5.889 8.986l-4.078 3.52 8.786 2.155 4.077-3.521-8.785-2.155zM11.092 21.82l3.582-3.094-3.583-0.878v3.973z"></path>
</svg>
